# AST/ASF file generated using VICON BodyLanguage
# -----------------------------------------------
:version 1.10
:name VICON
:units
  mass 1.0
  length 0.45
  angle deg
:documentation
   .ast/.asf automatically generated from VICON data using
   VICON BodyBuilder and BodyLanguage model FoxedUp or BRILLIANT.MOD
:root
   order TX TY TZ RX RY RZ
   axis XYZ
   position 0 0 0  
   orientation 0 0 0 
:bonedata
  begin
     id 1 
     name lhipjoint
     direction 0.643824 -0.71708 0.266994 
     length 2.52133 
     axis 0 0 0  XYZ
  end
  begin
     id 2 
     name lfemur
     direction 0.34202 -0.939693 0  
     length 7.51824  
     axis 0 0 20  XYZ
    dof rx ry rz
    limits (-160.0 20.0)
           (-70.0 70.0)
           (-60.0 70.0)
  end
  begin
     id 3 
     name ltibia
     direction 0.34202 -0.939693 0   
     length 7.3685   
     axis 0 0 20   XYZ
    dof rx
    limits (-10.0 170.0)
  end
  begin
     id 4 
     name lfoot
     direction 0.105419 -0.289636 0.951314   
     length 2.20972   
     axis -90 7.62852e-016 20   XYZ
    dof rx rz
    limits (-45.0 90.0)
           (-70.0 20.0)
  end
  begin
     id 5 
     name ltoes
     direction 1.53549e-011 -4.21833e-011 1   
     length 1.10139   
     axis -90 7.62852e-016 20   XYZ
    dof rx
    limits (-90.0 20.0)
  end
  begin
     id 6 
     name rhipjoint
     direction -0.608823 -0.743445 0.276811   
     length 2.43192  
     axis 0 0 0  XYZ 
  end
  begin
     id 7 
     name rfemur
     direction -0.34202 -0.939693 0   
     length 7.69715   
     axis 0 0 -20   XYZ
    dof rx ry rz
    limits (-160.0 20.0)
           (-70.0 70.0)
           (-70.0 60.0)
  end
  begin
     id 8 
     name rtibia
     direction -0.34202 -0.939693 0   
     length 7.44924   
     axis 0 0 -20   XYZ
    dof rx
    limits (-10.0 170.0)
 end
 begin
     id 9 
     name rfoot
     direction -0.103614 -0.284677 0.953007   
     length 2.22623  
     axis -90 -7.62852e-016 -20   XYZ
    dof rx rz
    limits (-45.0 90.0)
           (-20.0 70.0)
  end
  begin
     id 10 
     name rtoes
     direction -1.53537e-011 -4.22026e-011 1   
     length 1.11   
     axis -90 -7.62852e-016 -20   XYZ
    dof rx
    limits (-90.0 20.0)
  end
  begin
     id 11 
     name lowerback
     direction -0.0101212 0.99662 -0.0815298   
     length 2.08277   
     axis 0 0 0   XYZ
    dof rx ry rz
    limits (-20.0 45.0)
           (-30.0 30.0)
           (-30.0 30.0)
  end
  begin
     id 12 
     name upperback
     direction 0.024314 0.999591 -0.0150645   
     length 2.08524   
     axis 0 0 0   XYZ
    dof rx ry rz
    limits (-20.0 45.0)
           (-30.0 30.0)
           (-30.0 30.0)
  end
  begin
     id 13 
     name thorax
     direction 0.0285959 0.999323 0.0231357   
     length 2.09645   
     axis 0 0 0   XYZ
    dof rx ry rz
    limits (-20.0 45.0)
           (-30.0 30.0)
           (-30.0 30.0)
  end
  begin
     id 14 
     name lowerneck
     direction -0.065512 0.979301 0.191515   
     length 1.63798   
     axis 0 0 0   XYZ
    dof rx ry rz
    limits (-20.0 45.0)
           (-30.0 30.0)
           (-30.0 30.0)
  end
  begin
     id 15 
     name upperneck
     direction 0.0498479 0.98191 -0.182667   
     length 1.68731   
     axis 0 0 0   XYZ
    dof rx ry rz
    limits (-20.0 45.0)
           (-30.0 30.0)
           (-30.0 30.0)
  end
  begin
     id 16
     name head
     direction 0.0230358 0.996257 -0.0833175  
     length 1.69785  
     axis 0 0 0   XYZ
    dof rx ry rz
    limits (-20.0 45.0)
           (-30.0 30.0)
           (-30.0 30.0)
  end
  begin
     id 17 
     name lclavicle
     direction 0.967963 0.201165 -0.150269  
     length 3.63976  
     axis 0 0 0   XYZ
    dof ry rz
    limits (-20.0 10.0)
           (0.0 20.0)
  end
  begin
     id 18 
     name lhumerus
     direction 1 -4.48954e-011 -2.92837e-028   
     length 5.32462   
     axis 180 -30 -90   XYZ
    dof rx ry rz
    limits (-60.0 90.0)
           (-90.0 90.0)
           (-90.0 90.0)
  end
  begin
     id 19
     name lradius
     direction 1 -4.48958e-011 -6.39511e-027   
     length 3.48402   
     axis 180 -30 -90   XYZ
    dof rx
    limits (-10.0 170.0)
  end
  begin
     id 20
     name lwrist
     direction 1 -4.48975e-011 -1.1413e-026   
     length 1.74201   
     axis 6.88575e-015 90 90   XYZ
    dof ry
    limits (-180.0 0.0)
 end
  begin
     id 21 
     name lhand
     direction 1 -4.48899e-011 -2.28192e-026   
     length 0.572476   
     axis 1.45643e-014 90 90   XYZ
    dof rx rz
    limits (-90.0 90.0)
           (-45.0 45.0)
  end
  begin
     id 22 
     name lfingers
     direction 1 -4.49155e-011 -4.5684e-026   
     length 0.461545   
     axis 2.91283e-014 90 90   XYZ
    dof rx
    limits (0.0 90.0)
  end
  begin
     id 23
     name lthumb
     direction 0.707107 -6.34943e-011 0.707107   
     length 0.662688   
     axis -90 45 -2.25915e-014   XYZ
    dof rx rz
    limits (-45.0 45.0)
           (-45.0 45.0)
  end
  begin
     id 24 
     name rclavicle
     direction -0.964103 0.264019 -0.0282629   
     length 3.54491  
     axis 0 0 0   XYZ 
    dof ry rz
    limits (-10.0 20.0)
           (-20.0 0.0)
  end
  begin
     id 25 
     name rhumerus
     direction -1 -4.48964e-011 -2.45032e-027  
     length 5.33589   
     axis 180 30 90   XYZ
    dof rx ry rz
    limits (-90.0 60.0)
           (-90.0 90.0)
           (-90.0 90.0)
  end
  begin
     id 26 
     name rradius
     direction -1 -4.48987e-011 -1.55093e-027   
     length 3.64134   
     axis 180 30 90   XYZ
    dof rx
    limits (-10.0 170.0)
  end
  begin
     id 27 
     name rwrist
     direction -1 -4.4897e-011 -1.14128e-026   
     length 1.82067   
     axis 6.88575e-015 -90 -90   XYZ
    dof ry
    limits (-180.0 0.0)
  end
  begin
     id 28
     name rhand
     direction -1 -4.49021e-011 -2.28301e-026   
     length 0.734811   
     axis 1.45643e-014 -90 -90   XYZ
    dof rx rz
    limits (-90.0 90.0)
           (-45.0 45.0)
  end
  begin
     id 29
     name rfingers
     direction -1 -4.48862e-011 -4.56319e-026   
     length 0.592424   
     axis 2.91283e-014 -90 -90   XYZ
    dof rx
    limits (0.0 90.0)
  end
  begin
     id 30
     name rthumb
     direction -0.707107 -6.34978e-011 0.707107   
     length 0.850605   
     axis -90 -45 2.25915e-014   XYZ
    dof rx rz
    limits (-45.0 45.0)
           (-45.0 45.0)
  end
:hierarchy
  begin
    root lhipjoint rhipjoint lowerback
    lhipjoint lfemur
    lfemur ltibia
    ltibia lfoot
    lfoot ltoes
    rhipjoint rfemur
    rfemur rtibia
    rtibia rfoot
    rfoot rtoes
    lowerback upperback
    upperback thorax
    thorax lowerneck lclavicle rclavicle
    lowerneck upperneck
    upperneck head
    lclavicle lhumerus
    lhumerus lradius
    lradius lwrist
    lwrist lhand lthumb
    lhand lfingers
    rclavicle rhumerus
    rhumerus rradius
    rradius rwrist
    rwrist rhand rthumb
    rhand rfingers
  end

#!OML:ASF F:\VICON\USERDATA\INSTALL\rory3\rory3.ASF
:FULLY-SPECIFIED
:DEGREES
70
root 0.855627 17.6969 -3.37227 1.86731 -43.8991 -1.48825
lowerback 5.99958 -0.744073 -3.87461
upperback -2.31121 -1.58642 -4.12238
thorax -5.80166 -0.741042 -1.95139
lowerneck -24.3169 -12.1756 -11.8514
upperneck -12.5136 -13.1864 12.6286
head 1.44536 -5.99233 4.62674
rclavicle 7.49915e-014 -1.27222e-014
rhumerus 52.2036 -33.6454 -16.82
rradius 43.4096
rwrist 8.59522
rhand -33.8259 3.15532
rfingers 7.12502
rthumb -7.01148 -26.7086
lclavicle 7.49915e-014 -1.27222e-014
lhumerus -19.7533 -11.3478 72.6139
lradius 57.9177
lwrist 5.00287
lhand -15.6048 27.4577
lfingers 7.12502
lthumb 10.5814 57.1713
rfemur -16.3654 1.32485 15.7479
rtibia 46.6434
rfoot -19.2002 -5.14308
rtoes -4.55879
lfemur -8.58432 4.62468 -20.7284
ltibia 29.1819
lfoot -17.4542 5.66246
ltoes -8.4204
71
root 0.831222 17.6942 -3.35963 2.02441 -43.8912 -1.51043
lowerback 5.90751 -0.631498 -3.90607
upperback -2.49216 -1.44529 -4.13807
thorax -5.93901 -0.668966 -1.96761
lowerneck -24.1749 -12.294 -11.9433
upperneck -12.5074 -13.3276 12.5742
head 1.44331 -6.06022 4.61037
rclavicle -3.03147e-015 1.43125e-014
rhumerus 53.3598 -34.3301 -17.1221
rradius 42.2418
rwrist 9.19513
rhand -33.7043 3.29044
rfingers 7.12502
rthumb -6.89415 -26.5773
lclavicle -3.03147e-015 1.43125e-014
lhumerus -19.3143 -11.79 72.7163
lradius 59.3248
lwrist 4.84074
lhand -15.8738 27.6061
lfingers 7.12502
lthumb 10.3219 57.3328
rfemur -16.6087 0.938084 15.8953
rtibia 46.2564
rfoot -19.4326 -5.03363
rtoes -5.22018
lfemur -8.70972 4.44659 -20.7008
ltibia 29.2842
lfoot -17.522 5.89133
ltoes -9.10889
72
root 0.80827 17.6911 -3.35017 2.04201 -43.7717 -1.45598
lowerback 5.95518 -0.527334 -3.96804
upperback -2.64774 -1.32794 -4.17859
thorax -6.13039 -0.607583 -1.98943
lowerneck -24.2535 -12.4197 -11.9385
upperneck -12.3011 -13.4833 12.3168
head 1.50457 -6.13404 4.50216
rclavicle -6.71892e-014 0
rhumerus 54.4076 -34.9811 -17.3811
rradius 41.2078
rwrist 9.80239
rhand -33.4984 3.01922
rfingers 7.12502
rthumb -6.69536 -26.8549
lclavicle -6.71892e-014 0
lhumerus -18.7049 -12.5481 72.8151
lradius 60.6538
lwrist 4.61536
lhand -15.9958 27.8242
lfingers 7.12502
lthumb 10.2042 57.5568
rfemur -16.7644 0.477809 16.0039
rtibia 45.8844
rfoot -19.6928 -4.84884
rtoes -4.72863
lfemur -8.74471 4.0959 -20.7275
ltibia 29.3899
lfoot -17.5991 6.17687
ltoes -9.92272
73
root 0.780635 17.6889 -3.32782 2.15232 -43.6982 -1.68223
lowerback 5.91238 -0.465138 -3.74713
upperback -2.6412 -1.22785 -4.25743
thorax -6.10411 -0.569402 -2.20727
lowerneck -24.7292 -12.4749 -11.607
upperneck -12.0662 -13.5892 12.066
head 1.60026 -6.18619 4.33969
rclavicle 3.27498e-014 3.97569e-014
rhumerus 55.5507 -35.742 -18.0173
rradius 40.3238
rwrist 10.1819
rhand -33.3844 2.63077
rfingers 7.12502
rthumb -6.58532 -27.2468
lclavicle 3.27498e-014 3.97569e-014
lhumerus -17.8558 -13.3965 72.528
lradius 62.0961
lwrist 4.63173
lhand -16.3569 28.1516
lfingers 7.12502
lthumb 9.85583 57.901
rfemur -16.7581 -0.0139708 16.3211
rtibia 45.4983
rfoot -19.9599 -4.67319
rtoes -4.94306
lfemur -8.62348 3.87168 -20.5387
ltibia 29.5427
lfoot -17.817 6.31133
ltoes -9.42717
74
root 0.752512 17.684 -3.30982 2.18607 -43.5946 -1.84787
lowerback 5.97096 -0.500569 -3.62681
upperback -2.65176 -1.27799 -4.37329
thorax -6.1552 -0.601836 -2.39092
lowerneck -25.3386 -12.4222 -11.1894
upperneck -11.6698 -13.5744 11.9705
head 1.76214 -6.17288 4.2171
rclavicle -7.9663e-014 6.36111e-015
rhumerus 57.0361 -36.398 -19.2077
rradius 39.4194
rwrist 10.5773
rhand -33.3178 2.74699
rfingers 7.12502
rthumb -6.52103 -27.1326
lclavicle -7.9663e-014 6.36111e-015
lhumerus -17.2089 -13.37 72.1866
lradius 63.4205
lwrist 4.48734
lhand -16.5494 27.4032
lfingers 7.12502
lthumb 9.67009 57.1613
rfemur -16.7193 -0.432635 16.6091
rtibia 45.1064
rfoot -20.1359 -4.65688
rtoes -5.75834
lfemur -8.48378 3.77299 -20.3559
ltibia 29.6879
lfoot -18.0251 6.23434
ltoes -8.66758
75
root 0.721368 17.6771 -3.2932 2.2453 -43.542 -2.06642
lowerback 6.00185 -0.537603 -3.53868
upperback -2.74857 -1.32808 -4.37185
thorax -6.2781 -0.629046 -2.43413
lowerneck -25.5348 -12.4059 -11.2417
upperneck -11.2997 -13.529 12.046
head 1.90708 -6.13331 4.23427
rclavicle -2.28602e-015 1.59028e-014
rhumerus 58.5674 -36.7716 -20.3268
rradius 38.652
rwrist 11.0056
rhand -33.2927 2.60539
rfingers 7.12502
rthumb -6.4968 -27.275
lclavicle -2.28602e-015 1.59028e-014
lhumerus -16.7248 -13.9628 71.8133
lradius 64.8896
lwrist 5.05566
lhand -16.8925 26.8603
lfingers 7.12502
lthumb 9.33907 56.6334
rfemur -16.6421 -0.835035 16.9499
rtibia 44.6852
rfoot -20.2936 -4.40124
rtoes -5.43954
lfemur -8.33389 3.84496 -20.121
ltibia 29.8507
lfoot -18.2117 6.1913
ltoes -9.30069
76
root 0.689234 17.6725 -3.27763 2.28083 -43.4192 -2.12595
lowerback 5.95129 -0.557476 -3.59015
upperback -2.92027 -1.3637 -4.32588
thorax -6.42953 -0.641985 -2.35489
lowerneck -25.3478 -12.4891 -11.6564
upperneck -11.0498 -13.5524 12.1841
head 2.00134 -6.12497 4.33141
rclavicle 9.54166e-015 -2.22639e-014
rhumerus 59.7395 -36.987 -20.9472
rradius 38.0813
rwrist 11.0345
rhand -33.3434 1.77535
rfingers 7.12502
rthumb -6.54568 -28.1035
lclavicle 9.54166e-015 -2.22639e-014
lhumerus -16.2834 -14.3507 71.6967
lradius 66.2496
lwrist 5.0676
lhand -16.6519 26.458
lfingers 7.12502
lthumb 9.57125 56.2206
rfemur -16.6558 -1.41485 17.1622
rtibia 44.2837
rfoot -20.5747 -3.92702
rtoes -4.27833
lfemur -8.2809 3.86096 -20.0256
ltibia 30.0149
lfoot -18.3366 6.21114
ltoes -10.4738
77
root 0.656338 17.6708 -3.26425 2.50199 -43.3059 -2.51323
lowerback 5.95298 -0.559781 -3.39583
upperback -3.09782 -1.35363 -4.2307
thorax -6.61992 -0.640866 -2.36671
lowerneck -25.2052 -12.59 -12.0019
upperneck -10.7431 -13.6139 12.2297
head 2.10893 -6.13862 4.38194
rclavicle -2.18663e-014 -4.77083e-015
rhumerus 60.7471 -37.1303 -21.4269
rradius 37.5417
rwrist 10.9977
rhand -33.5233 1.1468
rfingers 7.12502
rthumb -6.71944 -28.7266
lclavicle -2.18663e-014 -4.77083e-015
lhumerus -15.7602 -14.7784 71.5042
lradius 67.4875
lwrist 4.71117
lhand -16.0666 26.3689
lfingers 7.12502
lthumb 10.1359 56.1047
rfemur -16.6213 -1.88785 17.6693
rtibia 43.8836
rfoot -20.7677 -3.66572
rtoes -3.524
lfemur -8.19103 3.85843 -19.6325
ltibia 30.165
lfoot -18.4743 6.1452
ltoes -10.9422
78
root 0.623915 17.6679 -3.25416 2.7385 -43.2075 -2.93504
lowerback 5.96143 -0.561402 -3.18914
upperback -3.23916 -1.33749 -4.11573
thorax -6.7754 -0.637321 -2.36492
lowerneck -25.1579 -12.7093 -12.3896
upperneck -10.4283 -13.6794 12.3168
head 2.23736 -6.14961 4.44724
rclavicle 4.92986e-014 3.18055e-014
rhumerus 61.9519 -37.2975 -22.133
rradius 36.9441
rwrist 11.2114
rhand -33.6642 0.785606
rfingers 7.12502
rthumb -6.85541 -29.0834
lclavicle 4.92986e-014 3.18055e-014
lhumerus -15.1328 -15.2527 71.273
lradius 68.7549
lwrist 4.74016
lhand -15.6822 26.0177
lfingers 7.12502
lthumb 10.5067 55.7351
rfemur -16.5834 -2.30038 18.2155
rtibia 43.4945
rfoot -20.8598 -3.4047
rtoes -2.80035
lfemur -8.09269 3.70798 -19.2134
ltibia 30.2945
lfoot -18.5908 6.29032
ltoes -12.1348
